# xmcd
#
# Track frame offsets: 
#        150
#        15569
#        29265
#        41979
#        55401
#        71186
#        91101
#        108251
#        120909
#        133299
#        147680
#        162217
#        173522
#        185973
#        200791
#        210246
#        225119
#        241288
#        253331
#        268600
#        285368
#        301312
#        324531
#        337200
#        351195
#        365640
#
# Disc length: 5072 seconds
#
# Revision: 2
# Processed by: cddbd v1.5.2PL0 Copyright (c) Steve Scherf et al.
# Submitted via: ExactAudioCopyFreeDBPlugin 1.0
#
DISCID=9113ce1a
DTITLE=Various Artist - Sweet Soul Music:  411 Scorching Classics, 19
DTITLE=61-1975 [Bear Family]
DYEAR=2014
DGENRE=Soul
TTITLE0=Jackie Moore - Precious, Precious
TTITLE1=Johnnie Taylor - Jody's Got Your Girl and Gone
TTITLE2=The Detroit Emeralds - Do Me Right
TTITLE3=Bill Coday - Get Your Lie Straight
TTITLE4=Ike and Tina Turner - Proud Mary
TTITLE5=James Brown - Soul Power, Parts 1 and 2 (ft The JB's)
TTITLE6=The Temptations - Just My Imagination (Running Away with Me)
TTITLE7=Wilson Pickett - Don't Let the Green Grass Fool You
TTITLE8=The Honey Cone - Want Ads
TTITLE9=The Beginning of the End - Funky Nassau, Part 1
TTITLE10=The 8th Day - She's Not Just Another Woman
TTITLE11=Jean Knight - Mr. Big Stuff
TTITLE12=The Cornelius Brothers and Sister Rose - Treat Her Like a Lady
TTITLE13=Dee Dee Warwick - Suspicious Minds
TTITLE14=Bill Withers - Ain't No Sunshine
TTITLE15=The Undisputed Truth - Smiling Faces Sometimes
TTITLE16=The Dramatics - Whatcha See is Whatcha Get
TTITLE17=Denise LaSalle - Trapped By a Thing Called Love
TTITLE18=The Persuaders - Thin Line Between Love and Hate
TTITLE19=O.V. Wright - A Nickel and a Nail
TTITLE20=The Staple Singers - Respect Yourself
TTITLE21=The Chi-Lites - Have You Seen Her
TTITLE22=Betty Wright - Clean Up Woman
TTITLE23=Sly and The Family Stone - Family Affair
TTITLE24=Aretha Franklin - Rock Steady
TTITLE25=Al Green - Let's Stay Together
EXTD=
EXTT0=
EXTT1=
EXTT2=
EXTT3=
EXTT4=
EXTT5=
EXTT6=
EXTT7=
EXTT8=
EXTT9=
EXTT10=
EXTT11=
EXTT12=
EXTT13=
EXTT14=
EXTT15=
EXTT16=
EXTT17=
EXTT18=
EXTT19=
EXTT20=
EXTT21=
EXTT22=
EXTT23=
EXTT24=
EXTT25=
PLAYORDER=
